<!-- <?xml version="1.0" encoding="UTF-8" standalone="no" ?>
<!DOCTYPE svg PUBLIC "-//W3C//DTD SVG 1.1//EN" "http://www.w3.org/Graphics/SVG/1.1/DTD/svg11.dtd"> -->
<svg xmlns="http://www.w3.org/2000/svg" xmlns:xlink="http://www.w3.org/1999/xlink" version="1.1" width="1280" height="1024" viewBox="0 0 1280 1024" xml:space="preserve">
<desc>Created with Fabric.js 4.4.0</desc>
<defs>
</defs>
<g transform="matrix(1 0 0 1 640 512)" id="background-logo"  >
<rect style="stroke: none; stroke-width: 0; stroke-dasharray: none; stroke-linecap: butt; stroke-dashoffset: 0; stroke-linejoin: miter; stroke-miterlimit: 4; fill: rgb(22,41,65); fill-rule: nonzero; opacity: 1;"  paint-order="stroke"  x="-640" y="-512" rx="0" ry="0" width="1280" height="1024" />
</g>
<g transform="matrix(1.9211538461538462 0 0 1.9211538461538462 629.1208455651495 663.9973429913518)" id="text-logo"  >
<g style=""  paint-order="stroke"   >
		<g transform="matrix(1 0 0 1 -5.684342e-14 0)" id="text-logo-path-0"  >
<path style="stroke: none; stroke-width: 0; stroke-dasharray: none; stroke-linecap: butt; stroke-dashoffset: 0; stroke-linejoin: miter; stroke-miterlimit: 4; fill: rgb(55,182,255); fill-rule: nonzero; opacity: 1;"  paint-order="stroke"  transform=" translate(-299.30999999999995, 11.535)" d="M 1.32 -9.24 L 13.43 -9.24 C 17.39 -9.24 20.46 -12.14 20.46 -16.07 C 20.46 -20.06 17.42 -23.1 13.43 -23.1 L 1.32 -23.1 Z M 1.32 0 L 5.94 0 L 5.94 -7.59 L 1.32 -7.59 Z M 5.94 -13.86 L 5.94 -18.48 L 13.43 -18.48 C 15.18 -18.48 15.84 -17.82 15.84 -16.07 C 15.84 -14.45 15.21 -13.86 13.43 -13.86 Z M 28.71 -23.1 L 28.71 0 L 33.33 0 L 33.33 -23.1 Z M 41.58 -9.24 L 53.69 -9.24 C 57.65 -9.24 60.72 -12.14 60.72 -16.07 C 60.72 -20.06 57.68 -23.1 53.69 -23.1 L 41.58 -23.1 Z M 41.58 0 L 46.2 0 L 46.2 -7.59 L 41.58 -7.59 Z M 46.2 -13.86 L 46.2 -18.48 L 53.69 -18.48 C 55.44 -18.48 56.1 -17.82 56.1 -16.07 C 56.1 -14.45 55.47 -13.86 53.69 -13.86 Z M 88.11 -4.59 L 76 -4.59 C 74.25 -4.59 73.59 -5.25 73.59 -7 L 73.59 -7.59 L 68.97 -7.59 L 68.97 -7 C 68.97 -3 72.01 0.03 76 0.03 L 88.11 0.03 Z M 68.97 -9.24 L 85.8 -9.24 L 85.8 -13.86 L 73.59 -13.86 L 73.59 -18.48 L 88.11 -18.48 L 88.11 -23.1 L 68.97 -23.1 Z M 127.71 -4.59 L 115.6 -4.59 C 113.85 -4.59 113.19 -5.25 113.19 -7 L 113.19 -7.59 L 108.57 -7.59 L 108.57 -7 C 108.57 -3 111.61 0.03 115.6 0.03 L 127.71 0.03 Z M 108.57 -9.24 L 125.4 -9.24 L 125.4 -13.86 L 113.19 -13.86 L 113.19 -18.48 L 127.71 -18.48 L 127.71 -23.1 L 108.57 -23.1 Z M 149.82 -23.1 L 149.82 -16.27 C 149.82 -14.52 149.16 -13.86 147.41 -13.86 L 143.65 -13.86 C 141.9 -13.86 141.24 -14.52 141.24 -16.27 L 141.24 -23.1 L 136.62 -23.1 L 136.62 -16.27 C 136.62 -14.59 137.15 -13.1 138.07 -11.91 C 136.75 -10.66 135.96 -8.88 135.96 -6.83 L 135.96 0 L 140.58 0 L 140.58 -6.83 C 140.58 -8.58 141.24 -9.24 142.99 -9.24 L 148.07 -9.24 C 149.82 -9.24 150.48 -8.58 150.48 -6.83 L 150.48 0 L 155.1 0 L 155.1 -6.83 C 155.1 -8.88 154.31 -10.66 152.99 -11.91 C 153.91 -13.1 154.44 -14.59 154.44 -16.27 L 154.44 -23.1 Z M 163.35 -9.24 L 175.46 -9.24 C 179.42 -9.24 182.49 -12.14 182.49 -16.07 C 182.49 -20.06 179.45 -23.1 175.46 -23.1 L 163.35 -23.1 Z M 163.35 0 L 167.97 0 L 167.97 -7.59 L 163.35 -7.59 Z M 167.97 -13.86 L 167.97 -18.48 L 175.46 -18.48 C 177.21 -18.48 177.87 -17.82 177.87 -16.07 C 177.87 -14.45 177.24 -13.86 175.46 -13.86 Z M 209.88 -4.59 L 197.77 -4.59 C 196.02 -4.59 195.36 -5.25 195.36 -7 L 195.36 -7.59 L 190.74 -7.59 L 190.74 -7 C 190.74 -3 193.78 0.03 197.77 0.03 L 209.88 0.03 Z M 190.74 -9.24 L 207.57 -9.24 L 207.57 -13.86 L 195.36 -13.86 L 195.36 -18.48 L 209.88 -18.48 L 209.88 -23.1 L 190.74 -23.1 Z M 218.13 -9.24 L 230.24 -9.24 C 231.99 -9.24 232.65 -8.58 232.65 -6.83 L 232.65 0 L 237.27 0 L 237.27 -6.83 C 237.27 -8.65 236.64 -10.3 235.55 -11.52 C 236.64 -12.71 237.27 -14.29 237.27 -16.07 C 237.27 -20.06 234.23 -23.1 230.24 -23.1 L 218.13 -23.1 Z M 218.13 0 L 222.75 0 L 222.75 -7.59 L 218.13 -7.59 Z M 222.75 -13.86 L 222.75 -18.48 L 230.24 -18.48 C 231.99 -18.48 232.65 -17.82 232.65 -16.07 C 232.65 -14.45 232.02 -13.86 230.24 -13.86 Z M 253.11 -16.83 L 253.11 0 L 257.73 0 L 257.73 -16.83 Z M 245.52 -18.48 L 265.32 -18.48 L 265.32 -23.1 L 245.52 -23.1 Z M 290.4 -23.1 L 280.6 -23.1 C 276.61 -23.1 273.57 -20.06 273.57 -16.07 C 273.57 -12.14 276.64 -9.24 280.6 -9.24 L 285.68 -9.24 C 287.46 -9.24 288.09 -8.65 288.09 -7.03 C 288.09 -5.28 287.43 -4.62 285.68 -4.62 L 274.56 -4.62 L 274.56 0 L 285.68 0 C 289.67 0 292.71 -3.04 292.71 -7.03 C 292.71 -10.96 289.64 -13.86 285.68 -13.86 L 280.6 -13.86 C 278.82 -13.86 278.19 -14.45 278.19 -16.07 C 278.19 -17.82 278.85 -18.48 280.6 -18.48 L 290.4 -18.48 Z M 313.17 -9.24 L 325.28 -9.24 C 329.24 -9.24 332.31 -12.14 332.31 -16.07 C 332.31 -20.06 329.27 -23.1 325.28 -23.1 L 313.17 -23.1 Z M 313.17 0 L 317.79 0 L 317.79 -7.59 L 313.17 -7.59 Z M 317.79 -13.86 L 317.79 -18.48 L 325.28 -18.48 C 327.03 -18.48 327.69 -17.82 327.69 -16.07 C 327.69 -14.45 327.06 -13.86 325.28 -13.86 Z M 359.7 -4.62 L 347.59 -4.62 C 345.84 -4.62 345.18 -5.28 345.18 -7.03 L 345.18 -23.1 L 340.56 -23.1 L 340.56 -7.03 C 340.56 -3.04 343.6 0 347.59 0 L 359.7 0 Z M 367.95 -7.62 L 367.95 -7.03 C 367.95 -3.04 370.99 0 374.98 0 L 380.06 0 C 384.05 0 387.09 -3.04 387.09 -7.03 L 387.09 -23.1 L 382.47 -23.1 L 382.47 -7.03 C 382.47 -5.28 381.81 -4.62 380.06 -4.62 L 374.98 -4.62 C 373.23 -4.62 372.57 -5.28 372.57 -7.03 L 372.57 -7.62 Z M 367.95 -9.27 L 372.57 -9.27 L 372.57 -23.1 L 367.95 -23.1 Z M 399.96 0 L 399.96 -7.59 L 395.34 -7.59 L 395.34 0 Z M 395.34 -9.24 L 399.96 -9.24 L 399.96 -16.07 C 399.96 -17.82 400.62 -18.48 402.37 -18.48 L 404.15 -18.48 C 405.9 -18.48 406.56 -17.82 406.56 -16.07 L 406.56 0 L 411.18 0 L 411.18 -16.07 C 411.18 -17.82 411.84 -18.48 413.59 -18.48 L 415.37 -18.48 C 417.12 -18.48 417.78 -17.82 417.78 -16.07 L 417.78 0 L 422.4 0 L 422.4 -16.07 C 422.4 -20.06 419.36 -23.1 415.37 -23.1 L 413.59 -23.1 C 411.74 -23.1 410.09 -22.44 408.87 -21.35 C 407.65 -22.44 406 -23.1 404.15 -23.1 L 402.37 -23.1 C 398.38 -23.1 395.34 -20.06 395.34 -16.07 Z M 430.65 -9.24 L 442.76 -9.24 C 444.51 -9.24 445.17 -8.58 445.17 -6.83 C 445.17 -5.21 444.54 -4.62 442.76 -4.62 L 435.27 -4.62 L 435.27 -7.59 L 430.65 -7.59 L 430.65 0 L 442.76 0 C 446.72 0 449.79 -2.9 449.79 -6.83 C 449.79 -9.14 448.77 -11.15 447.12 -12.41 C 447.78 -13.46 448.14 -14.72 448.14 -16.07 C 448.14 -20.06 445.1 -23.1 441.11 -23.1 L 430.65 -23.1 Z M 435.27 -13.86 L 435.27 -18.48 L 441.11 -18.48 C 442.86 -18.48 443.52 -17.82 443.52 -16.07 C 443.52 -14.45 442.89 -13.86 441.11 -13.86 Z M 458.04 -23.1 L 458.04 0 L 462.66 0 L 462.66 -23.1 Z M 475.53 0 L 475.53 -7.59 L 470.91 -7.59 L 470.91 0 Z M 470.91 -9.24 L 475.53 -9.24 L 475.53 -16.07 C 475.53 -17.82 476.19 -18.48 477.94 -18.48 L 483.02 -18.48 C 484.77 -18.48 485.43 -17.82 485.43 -16.07 L 485.43 0 L 490.05 0 L 490.05 -16.07 C 490.05 -20.06 487.01 -23.1 483.02 -23.1 L 477.94 -23.1 C 473.95 -23.1 470.91 -20.06 470.91 -16.07 Z M 517.44 -13.86 L 507.21 -13.86 L 507.21 -9.24 L 517.44 -9.24 Z M 498.3 -7.03 C 498.3 -3.04 501.34 0 505.33 0 L 510.41 0 C 514.4 0 517.44 -3.04 517.44 -7.03 L 517.44 -7.62 L 512.82 -7.62 L 512.82 -7.03 C 512.82 -5.28 512.16 -4.62 510.41 -4.62 L 505.33 -4.62 C 503.58 -4.62 502.92 -5.28 502.92 -7.03 L 502.92 -16.07 C 502.92 -17.82 503.58 -18.48 505.33 -18.48 L 517.44 -18.48 L 517.44 -23.1 L 505.33 -23.1 C 501.34 -23.1 498.3 -20.06 498.3 -16.07 Z M 537.9 -23.1 L 537.9 0 L 542.52 0 L 542.52 -23.1 Z M 555.39 0 L 555.39 -7.59 L 550.77 -7.59 L 550.77 0 Z M 550.77 -9.24 L 555.39 -9.24 L 555.39 -16.07 C 555.39 -17.82 556.05 -18.48 557.8 -18.48 L 562.88 -18.48 C 564.63 -18.48 565.29 -17.82 565.29 -16.07 L 565.29 0 L 569.91 0 L 569.91 -16.07 C 569.91 -20.06 566.87 -23.1 562.88 -23.1 L 557.8 -23.1 C 553.81 -23.1 550.77 -20.06 550.77 -16.07 Z M 597.3 -15.51 L 597.3 -16.07 C 597.3 -20.06 594.26 -23.1 590.27 -23.1 L 585.19 -23.1 C 581.2 -23.1 578.16 -20.06 578.16 -16.07 L 578.16 -7.03 C 578.16 -3.04 581.2 0 585.19 0 L 590.27 0 C 594.26 0 597.3 -3.04 597.3 -7.03 L 597.3 -7.62 L 592.68 -7.62 L 592.68 -7.03 C 592.68 -5.28 592.02 -4.62 590.27 -4.62 L 585.19 -4.62 C 583.44 -4.62 582.78 -5.28 582.78 -7.03 L 582.78 -16.07 C 582.78 -17.82 583.44 -18.48 585.19 -18.48 L 590.27 -18.48 C 592.02 -18.48 592.68 -17.82 592.68 -16.07 L 592.68 -15.51 Z" stroke-linecap="round" />
</g>
</g>
</g>
<g transform="matrix(1.9211538461538462 0 0 1.9211538461538462 639.7127837477464 755.6845131662767)" id="tagline-b8fc896c-aac5-47b2-a3f7-434f41c77c5c-logo"  >
<g style=""  paint-order="stroke"   >
		<g transform="matrix(1 0 0 1 5.684342e-14 0)" id="tagline-b8fc896c-aac5-47b2-a3f7-434f41c77c5c-logo-path-0"  >
<path style="stroke: none; stroke-width: 0; stroke-dasharray: none; stroke-linecap: butt; stroke-dashoffset: 0; stroke-linejoin: miter; stroke-miterlimit: 4; fill: rgb(55,182,255); fill-rule: nonzero; opacity: 1;"  paint-order="stroke"  transform=" translate(-292.09000000000003, 7.351247529557426)" d="M 6.3 -12.04 L 0.41 -12.04 L 0.41 -14.7 L 14.84 -14.7 L 14.84 -12.04 L 8.96 -12.04 L 8.96 0 L 6.3 0 L 6.3 -12.04 Z M 25.78 0 L 23.12 0 L 23.12 -14.7 L 25.78 -14.7 L 25.78 -8.7 L 35.14 -8.7 L 35.14 -14.7 L 37.81 -14.7 L 37.81 0 L 35.14 0 L 35.14 -6.01 L 25.78 -6.01 L 25.78 0 Z M 47.17 -3.74 L 47.17 -3.74 L 47.17 -13.36 Q 47.17 -13.64 47.27 -13.88 Q 47.37 -14.13 47.55 -14.31 Q 47.73 -14.5 47.98 -14.6 Q 48.22 -14.7 48.51 -14.7 L 48.51 -14.7 L 60.52 -14.7 L 60.52 -12.04 L 49.83 -12.04 L 49.83 -3.74 Q 49.83 -3.22 50.11 -2.94 Q 50.39 -2.67 50.92 -2.67 L 50.92 -2.67 L 60.52 -2.67 L 60.52 0 L 50.9 0 Q 50.34 0 49.69 -0.19 Q 49.03 -0.39 48.47 -0.84 Q 47.91 -1.28 47.54 -1.99 Q 47.17 -2.71 47.17 -3.74 Z M 59.32 -6.01 L 50.9 -6.01 L 50.9 -8.7 L 59.32 -8.7 L 59.32 -6.01 Z M 72.06 0 L 69.39 0 L 69.39 -13.36 Q 69.39 -13.64 69.49 -13.88 Q 69.6 -14.13 69.77 -14.31 Q 69.95 -14.5 70.2 -14.6 Q 70.45 -14.7 70.73 -14.7 L 70.73 -14.7 L 80.85 -14.7 Q 81.75 -14.7 82.36 -14.38 Q 82.98 -14.06 83.36 -13.57 Q 83.75 -13.08 83.91 -12.52 Q 84.08 -11.96 84.08 -11.46 L 84.08 -11.46 L 84.08 -9.76 Q 84.08 -8.85 83.86 -8.13 Q 83.63 -7.41 83.25 -6.86 Q 82.86 -6.32 82.36 -5.93 Q 81.86 -5.54 81.31 -5.29 Q 80.76 -5.03 80.2 -4.92 Q 79.64 -4.81 79.15 -4.81 L 79.15 -4.81 L 84.72 0 L 80.6 0 L 75.04 -4.81 L 73.12 -4.81 L 73.12 -7.48 L 79.15 -7.48 Q 79.65 -7.52 80.07 -7.69 Q 80.48 -7.85 80.79 -8.14 Q 81.09 -8.43 81.25 -8.83 Q 81.42 -9.24 81.42 -9.76 L 81.42 -9.76 L 81.42 -11.44 Q 81.42 -11.67 81.36 -11.79 Q 81.31 -11.9 81.22 -11.96 Q 81.13 -12.02 81.03 -12.03 Q 80.94 -12.04 80.85 -12.04 L 80.85 -12.04 L 72.06 -12.04 L 72.06 0 Z M 93 -3.74 L 93 -3.74 L 93 -13.36 Q 93 -13.64 93.1 -13.88 Q 93.2 -14.13 93.38 -14.31 Q 93.56 -14.5 93.81 -14.6 Q 94.05 -14.7 94.34 -14.7 L 94.34 -14.7 L 106.35 -14.7 L 106.35 -12.04 L 95.66 -12.04 L 95.66 -3.74 Q 95.66 -3.22 95.94 -2.94 Q 96.22 -2.67 96.75 -2.67 L 96.75 -2.67 L 106.35 -2.67 L 106.35 0 L 96.73 0 Q 96.18 0 95.52 -0.19 Q 94.87 -0.39 94.31 -0.84 Q 93.75 -1.28 93.37 -1.99 Q 93 -2.71 93 -3.74 Z M 105.15 -6.01 L 96.73 -6.01 L 96.73 -8.7 L 105.15 -8.7 L 105.15 -6.01 Z M 130.01 -0.92 L 127.53 -14.7 L 130.24 -14.7 L 132 -4.99 L 136.21 -11.7 Q 136.38 -12 136.68 -12.16 Q 136.99 -12.33 137.33 -12.33 L 137.33 -12.33 Q 137.68 -12.33 137.98 -12.16 Q 138.28 -12 138.47 -11.7 L 138.47 -11.7 L 142.66 -4.99 L 144.42 -14.7 L 147.13 -14.7 L 144.67 -0.92 Q 144.58 -0.51 144.3 -0.22 Q 144.01 0.08 143.6 0.16 L 143.6 0.16 Q 143.48 0.18 143.34 0.18 L 143.34 0.18 Q 143.05 0.18 142.8 0.07 L 142.8 0.07 Q 142.43 -0.09 142.22 -0.44 L 142.22 -0.44 L 137.33 -8.46 L 132.44 -0.44 Q 132.27 -0.14 131.97 0.02 Q 131.66 0.18 131.32 0.18 L 131.32 0.18 Q 130.83 0.18 130.46 -0.12 Q 130.1 -0.43 130.01 -0.92 L 130.01 -0.92 Z M 158.39 0 L 155.72 0 L 155.72 -14.7 L 158.39 -14.7 L 158.39 -8.7 L 167.75 -8.7 L 167.75 -14.7 L 170.42 -14.7 L 170.42 0 L 167.75 0 L 167.75 -6.01 L 158.39 -6.01 L 158.39 0 Z M 179.77 -3.74 L 179.77 -3.74 L 179.77 -13.36 Q 179.77 -13.64 179.88 -13.88 Q 179.98 -14.13 180.16 -14.31 Q 180.34 -14.5 180.58 -14.6 Q 180.83 -14.7 181.12 -14.7 L 181.12 -14.7 L 193.12 -14.7 L 193.12 -12.04 L 182.44 -12.04 L 182.44 -3.74 Q 182.44 -3.22 182.72 -2.94 Q 182.99 -2.67 183.53 -2.67 L 183.53 -2.67 L 193.12 -2.67 L 193.12 0 L 183.51 0 Q 182.95 0 182.3 -0.19 Q 181.64 -0.39 181.08 -0.84 Q 180.52 -1.28 180.15 -1.99 Q 179.77 -2.71 179.77 -3.74 Z M 191.92 -6.01 L 183.51 -6.01 L 183.51 -8.7 L 191.92 -8.7 L 191.92 -6.01 Z M 204.66 0 L 202 0 L 202 -13.57 Q 202 -13.98 202.23 -14.31 Q 202.46 -14.64 202.82 -14.81 L 202.82 -14.81 Q 203.07 -14.91 203.33 -14.91 L 203.33 -14.91 Q 203.46 -14.91 203.6 -14.89 L 203.6 -14.89 Q 204 -14.81 204.28 -14.51 L 204.28 -14.51 L 214.03 -4.35 L 214.03 -14.7 L 216.69 -14.7 L 216.69 -1.14 Q 216.69 -0.85 216.58 -0.6 Q 216.48 -0.36 216.3 -0.18 Q 216.12 0 215.87 0.1 Q 215.63 0.21 215.35 0.21 L 215.35 0.21 Q 215.1 0.21 214.85 0.11 Q 214.6 0.02 214.41 -0.18 L 214.41 -0.18 L 204.66 -10.36 L 204.66 0 Z M 238.35 -9.78 L 238.35 -9.78 L 238.35 -14.7 L 241.01 -14.7 L 241.01 -9.78 Q 241.01 -9.26 241.18 -8.84 Q 241.34 -8.43 241.64 -8.13 Q 241.93 -7.83 242.36 -7.68 Q 242.79 -7.52 243.31 -7.52 L 243.31 -7.52 L 248.12 -7.52 Q 248.5 -7.58 248.9 -7.68 Q 249.3 -7.77 249.63 -8.01 Q 249.95 -8.24 250.17 -8.66 Q 250.38 -9.08 250.38 -9.78 L 250.38 -9.78 L 250.38 -14.7 L 253.05 -14.7 L 253.05 -9.78 Q 253.05 -8.87 252.82 -8.15 Q 252.59 -7.43 252.21 -6.89 Q 251.83 -6.34 251.32 -5.95 Q 250.81 -5.56 250.27 -5.31 Q 249.73 -5.06 249.17 -4.94 Q 248.61 -4.83 248.12 -4.83 L 248.12 -4.83 L 247.04 -4.83 L 247.04 0 L 244.35 0 L 244.35 -4.83 L 243.29 -4.83 Q 242.8 -4.83 242.24 -4.94 Q 241.68 -5.06 241.13 -5.31 Q 240.58 -5.56 240.08 -5.95 Q 239.58 -6.34 239.19 -6.89 Q 238.81 -7.43 238.58 -8.16 Q 238.35 -8.88 238.35 -9.78 Z M 261.29 -5.95 L 261.29 -5.95 L 261.29 -8.76 Q 261.29 -10.09 261.75 -11.22 Q 262.22 -12.36 263.04 -13.17 Q 263.86 -13.99 264.99 -14.45 Q 266.12 -14.91 267.44 -14.91 L 267.44 -14.91 L 271.05 -14.91 Q 272.37 -14.91 273.5 -14.45 Q 274.62 -13.99 275.44 -13.17 Q 276.26 -12.36 276.72 -11.22 Q 277.18 -10.09 277.18 -8.76 L 277.18 -8.76 L 277.18 -5.95 Q 277.18 -4.6 276.72 -3.48 Q 276.26 -2.35 275.44 -1.53 Q 274.62 -0.71 273.5 -0.25 Q 272.37 0.21 271.05 0.21 L 271.05 0.21 L 267.44 0.21 Q 266.12 0.21 264.99 -0.25 Q 263.86 -0.71 263.04 -1.53 Q 262.22 -2.35 261.75 -3.48 Q 261.29 -4.6 261.29 -5.95 Z M 263.95 -8.76 L 263.95 -5.95 Q 263.95 -5.16 264.21 -4.52 Q 264.46 -3.88 264.92 -3.42 Q 265.38 -2.96 266.02 -2.71 Q 266.66 -2.46 267.44 -2.46 L 267.44 -2.46 L 271.03 -2.46 Q 271.81 -2.46 272.45 -2.71 Q 273.09 -2.96 273.55 -3.42 Q 274.01 -3.88 274.26 -4.52 Q 274.52 -5.16 274.52 -5.95 L 274.52 -5.95 L 274.52 -8.76 Q 274.52 -9.55 274.26 -10.19 Q 274.01 -10.83 273.56 -11.28 Q 273.1 -11.74 272.46 -11.99 Q 271.82 -12.24 271.05 -12.24 L 271.05 -12.24 L 267.44 -12.24 Q 266.66 -12.24 266.02 -11.99 Q 265.38 -11.74 264.92 -11.28 Q 264.46 -10.83 264.21 -10.19 Q 263.95 -9.55 263.95 -8.76 L 263.95 -8.76 Z M 285.82 -7.35 L 285.82 -7.35 L 285.82 -14.7 L 288.49 -14.7 L 288.49 -7.35 Q 288.49 -6.22 288.8 -5.44 Q 289.11 -4.67 289.59 -4.14 Q 290.07 -3.62 290.65 -3.32 Q 291.22 -3.02 291.74 -2.88 Q 292.26 -2.74 292.65 -2.7 Q 293.05 -2.67 293.17 -2.67 L 293.17 -2.67 L 297.86 -2.67 L 297.86 -14.7 L 300.52 -14.7 L 300.52 -1.34 Q 300.52 -1.06 300.42 -0.81 Q 300.32 -0.56 300.13 -0.38 Q 299.95 -0.21 299.7 -0.1 Q 299.46 0 299.18 0 L 299.18 0 L 293.17 0 Q 292.32 0 291.45 -0.18 Q 290.58 -0.37 289.76 -0.75 Q 288.95 -1.14 288.23 -1.73 Q 287.51 -2.33 286.97 -3.14 Q 286.43 -3.96 286.13 -5.01 Q 285.82 -6.06 285.82 -7.35 Z M 325.72 0 L 323.05 0 L 323.05 -13.57 Q 323.05 -13.98 323.28 -14.31 Q 323.51 -14.64 323.87 -14.81 L 323.87 -14.81 Q 324.13 -14.91 324.38 -14.91 L 324.38 -14.91 Q 324.52 -14.91 324.65 -14.89 L 324.65 -14.89 Q 325.05 -14.81 325.34 -14.51 L 325.34 -14.51 L 335.08 -4.35 L 335.08 -14.7 L 337.74 -14.7 L 337.74 -1.14 Q 337.74 -0.85 337.64 -0.6 Q 337.53 -0.36 337.35 -0.18 Q 337.17 0 336.92 0.1 Q 336.68 0.21 336.4 0.21 L 336.4 0.21 Q 336.15 0.21 335.9 0.11 Q 335.65 0.02 335.46 -0.18 L 335.46 -0.18 L 325.72 -10.36 L 325.72 0 Z M 347.08 -3.74 L 347.08 -3.74 L 347.08 -13.36 Q 347.08 -13.64 347.18 -13.88 Q 347.28 -14.13 347.46 -14.31 Q 347.64 -14.5 347.89 -14.6 Q 348.13 -14.7 348.42 -14.7 L 348.42 -14.7 L 360.43 -14.7 L 360.43 -12.04 L 349.74 -12.04 L 349.74 -3.74 Q 349.74 -3.22 350.02 -2.94 Q 350.3 -2.67 350.83 -2.67 L 350.83 -2.67 L 360.43 -2.67 L 360.43 0 L 350.81 0 Q 350.26 0 349.6 -0.19 Q 348.94 -0.39 348.39 -0.84 Q 347.83 -1.28 347.45 -1.99 Q 347.08 -2.71 347.08 -3.74 Z M 359.23 -6.01 L 350.81 -6.01 L 350.81 -8.7 L 359.23 -8.7 L 359.23 -6.01 Z M 369.24 -3.74 L 369.24 -3.74 L 369.24 -13.36 Q 369.24 -13.64 369.34 -13.88 Q 369.45 -14.13 369.63 -14.31 Q 369.81 -14.5 370.05 -14.6 Q 370.3 -14.7 370.58 -14.7 L 370.58 -14.7 L 382.59 -14.7 L 382.59 -12.04 L 371.91 -12.04 L 371.91 -3.74 Q 371.91 -3.22 372.18 -2.94 Q 372.46 -2.67 372.99 -2.67 L 372.99 -2.67 L 382.59 -2.67 L 382.59 0 L 372.97 0 Q 372.42 0 371.76 -0.19 Q 371.11 -0.39 370.55 -0.84 Q 369.99 -1.28 369.62 -1.99 Q 369.24 -2.71 369.24 -3.74 Z M 381.39 -6.01 L 372.97 -6.01 L 372.97 -8.7 L 381.39 -8.7 L 381.39 -6.01 Z M 391.44 -1.34 L 391.44 -1.34 L 391.44 -13.36 Q 391.44 -13.64 391.55 -13.88 Q 391.65 -14.13 391.83 -14.31 Q 392.01 -14.5 392.25 -14.6 Q 392.5 -14.7 392.79 -14.7 L 392.79 -14.7 L 399.99 -14.7 Q 401.31 -14.7 402.44 -14.24 Q 403.57 -13.78 404.39 -12.97 Q 405.21 -12.15 405.67 -11.02 Q 406.14 -9.88 406.14 -8.55 L 406.14 -8.55 L 406.14 -6.15 Q 406.14 -4.81 405.67 -3.68 Q 405.21 -2.55 404.39 -1.74 Q 403.57 -0.92 402.44 -0.46 Q 401.31 0 399.99 0 L 399.99 0 L 392.79 0 Q 392.5 0 392.25 -0.1 Q 392.01 -0.21 391.83 -0.38 Q 391.65 -0.56 391.55 -0.81 Q 391.44 -1.06 391.44 -1.34 Z M 394.11 -12.04 L 394.11 -2.67 L 399.99 -2.67 Q 400.77 -2.67 401.41 -2.92 Q 402.05 -3.17 402.51 -3.62 Q 402.97 -4.08 403.22 -4.72 Q 403.47 -5.36 403.47 -6.15 L 403.47 -6.15 L 403.47 -8.55 Q 403.47 -9.33 403.22 -9.98 Q 402.97 -10.62 402.51 -11.08 Q 402.05 -11.54 401.41 -11.79 Q 400.77 -12.04 399.99 -12.04 L 399.99 -12.04 L 394.11 -12.04 Z M 427.89 -7.35 L 427.89 -7.35 L 427.89 -14.7 L 430.55 -14.7 L 430.55 -7.35 Q 430.55 -6.22 430.86 -5.44 Q 431.18 -4.67 431.66 -4.14 Q 432.14 -3.62 432.71 -3.32 Q 433.29 -3.02 433.81 -2.88 Q 434.32 -2.74 434.72 -2.7 Q 435.11 -2.67 435.24 -2.67 L 435.24 -2.67 L 439.92 -2.67 L 439.92 -14.7 L 442.59 -14.7 L 442.59 -1.34 Q 442.59 -1.06 442.49 -0.81 Q 442.38 -0.56 442.2 -0.38 Q 442.02 -0.21 441.77 -0.1 Q 441.52 0 441.25 0 L 441.25 0 L 435.24 0 Q 434.39 0 433.51 -0.18 Q 432.64 -0.37 431.83 -0.75 Q 431.01 -1.14 430.29 -1.73 Q 429.58 -2.33 429.04 -3.14 Q 428.5 -3.96 428.19 -5.01 Q 427.89 -6.06 427.89 -7.35 Z M 451.42 -10.36 L 451.42 -10.36 Q 451.42 -11.56 451.85 -12.38 Q 452.27 -13.21 452.91 -13.72 Q 453.55 -14.24 454.3 -14.47 Q 455.05 -14.7 455.7 -14.7 L 455.7 -14.7 L 464.77 -14.7 L 464.77 -12.04 L 455.7 -12.04 Q 454.94 -12.04 454.51 -11.58 Q 454.09 -11.12 454.09 -10.36 L 454.09 -10.36 Q 454.09 -9.59 454.51 -9.14 Q 454.94 -8.7 455.7 -8.7 L 455.7 -8.7 L 461.83 -8.7 L 461.85 -8.7 Q 462.28 -8.69 462.76 -8.58 Q 463.24 -8.47 463.72 -8.24 Q 464.2 -8.02 464.63 -7.68 Q 465.06 -7.33 465.39 -6.85 Q 465.73 -6.37 465.92 -5.74 Q 466.12 -5.12 466.12 -4.33 L 466.12 -4.33 Q 466.12 -3.54 465.92 -2.91 Q 465.72 -2.28 465.39 -1.79 Q 465.06 -1.31 464.62 -0.97 Q 464.18 -0.64 463.71 -0.42 Q 463.23 -0.21 462.75 -0.1 Q 462.26 0 461.83 0 L 461.83 0 L 451.55 0 L 451.55 -2.67 L 461.83 -2.67 Q 462.6 -2.67 463.02 -3.12 Q 463.45 -3.57 463.45 -4.33 L 463.45 -4.33 Q 463.45 -4.7 463.34 -5 Q 463.22 -5.31 463.01 -5.54 Q 462.8 -5.76 462.5 -5.89 Q 462.2 -6.01 461.83 -6.01 L 461.83 -6.01 L 455.7 -6.01 Q 455.05 -6.01 454.3 -6.24 Q 453.55 -6.47 452.91 -6.98 Q 452.27 -7.5 451.85 -8.33 Q 451.42 -9.16 451.42 -10.36 Z M 490.32 0 L 487.66 0 L 487.66 -13.57 Q 487.66 -14.03 487.93 -14.39 Q 488.2 -14.75 488.64 -14.87 L 488.64 -14.87 Q 488.86 -14.92 489.07 -14.9 Q 489.29 -14.89 489.49 -14.81 Q 489.69 -14.73 489.85 -14.6 Q 490.02 -14.46 490.13 -14.26 L 490.13 -14.26 L 496.2 -3.71 L 502.27 -14.26 Q 502.52 -14.65 502.93 -14.82 L 502.93 -14.82 Q 503.17 -14.91 503.43 -14.91 L 503.43 -14.91 Q 503.6 -14.91 503.79 -14.87 L 503.79 -14.87 Q 504.22 -14.75 504.49 -14.39 Q 504.77 -14.03 504.77 -13.57 L 504.77 -13.57 L 504.77 0 L 502.08 0 L 502.08 -8.76 L 497.36 -0.44 Q 497.18 -0.12 496.87 0.04 Q 496.56 0.21 496.2 0.21 L 496.2 0.21 Q 495.85 0.21 495.55 0.04 Q 495.25 -0.12 495.07 -0.44 L 495.07 -0.44 L 490.32 -8.76 L 490.32 0 Z M 513.71 -5.95 L 513.71 -5.95 L 513.71 -8.76 Q 513.71 -10.09 514.17 -11.22 Q 514.64 -12.36 515.46 -13.17 Q 516.28 -13.99 517.41 -14.45 Q 518.54 -14.91 519.86 -14.91 L 519.86 -14.91 L 523.47 -14.91 Q 524.79 -14.91 525.91 -14.45 Q 527.04 -13.99 527.86 -13.17 Q 528.68 -12.36 529.14 -11.22 Q 529.6 -10.09 529.6 -8.76 L 529.6 -8.76 L 529.6 -5.95 Q 529.6 -4.6 529.14 -3.48 Q 528.68 -2.35 527.86 -1.53 Q 527.04 -0.71 525.91 -0.25 Q 524.79 0.21 523.47 0.21 L 523.47 0.21 L 519.86 0.21 Q 518.54 0.21 517.41 -0.25 Q 516.28 -0.71 515.46 -1.53 Q 514.64 -2.35 514.17 -3.48 Q 513.71 -4.6 513.71 -5.95 Z M 516.37 -8.76 L 516.37 -5.95 Q 516.37 -5.16 516.62 -4.52 Q 516.87 -3.88 517.34 -3.42 Q 517.8 -2.96 518.44 -2.71 Q 519.08 -2.46 519.86 -2.46 L 519.86 -2.46 L 523.45 -2.46 Q 524.23 -2.46 524.87 -2.71 Q 525.51 -2.96 525.97 -3.42 Q 526.43 -3.88 526.68 -4.52 Q 526.93 -5.16 526.93 -5.95 L 526.93 -5.95 L 526.93 -8.76 Q 526.93 -9.55 526.68 -10.19 Q 526.43 -10.83 525.98 -11.28 Q 525.52 -11.74 524.88 -11.99 Q 524.24 -12.24 523.47 -12.24 L 523.47 -12.24 L 519.86 -12.24 Q 519.08 -12.24 518.44 -11.99 Q 517.8 -11.74 517.34 -11.28 Q 516.87 -10.83 516.62 -10.19 Q 516.37 -9.55 516.37 -8.76 L 516.37 -8.76 Z M 537.97 -10.36 L 537.97 -10.36 Q 537.97 -11.56 538.4 -12.38 Q 538.82 -13.21 539.46 -13.72 Q 540.1 -14.24 540.85 -14.47 Q 541.6 -14.7 542.25 -14.7 L 542.25 -14.7 L 551.32 -14.7 L 551.32 -12.04 L 542.25 -12.04 Q 541.49 -12.04 541.06 -11.58 Q 540.64 -11.12 540.64 -10.36 L 540.64 -10.36 Q 540.64 -9.59 541.06 -9.14 Q 541.49 -8.7 542.25 -8.7 L 542.25 -8.7 L 548.38 -8.7 L 548.4 -8.7 Q 548.83 -8.69 549.31 -8.58 Q 549.79 -8.47 550.27 -8.24 Q 550.75 -8.02 551.18 -7.68 Q 551.61 -7.33 551.94 -6.85 Q 552.28 -6.37 552.47 -5.74 Q 552.67 -5.12 552.67 -4.33 L 552.67 -4.33 Q 552.67 -3.54 552.47 -2.91 Q 552.27 -2.28 551.94 -1.79 Q 551.61 -1.31 551.17 -0.97 Q 550.73 -0.64 550.26 -0.42 Q 549.78 -0.21 549.3 -0.1 Q 548.81 0 548.38 0 L 548.38 0 L 538.09 0 L 538.09 -2.67 L 548.38 -2.67 Q 549.15 -2.67 549.57 -3.12 Q 550 -3.57 550 -4.33 L 550 -4.33 Q 550 -4.7 549.89 -5 Q 549.77 -5.31 549.56 -5.54 Q 549.35 -5.76 549.05 -5.89 Q 548.75 -6.01 548.38 -6.01 L 548.38 -6.01 L 542.25 -6.01 Q 541.6 -6.01 540.85 -6.24 Q 540.1 -6.47 539.46 -6.98 Q 538.82 -7.5 538.4 -8.33 Q 537.97 -9.16 537.97 -10.36 Z M 565.77 -12.04 L 559.89 -12.04 L 559.89 -14.7 L 574.32 -14.7 L 574.32 -12.04 L 568.44 -12.04 L 568.44 0 L 565.77 0 L 565.77 -12.04 Z M 581.13 -1.34 L 581.13 -1.34 Q 581.13 -1.61 581.23 -1.85 Q 581.33 -2.09 581.51 -2.27 Q 581.69 -2.45 581.93 -2.56 Q 582.17 -2.67 582.45 -2.67 L 582.45 -2.67 Q 582.72 -2.67 582.96 -2.56 Q 583.2 -2.45 583.38 -2.27 Q 583.56 -2.09 583.67 -1.85 Q 583.77 -1.61 583.77 -1.34 L 583.77 -1.34 Q 583.77 -1.07 583.67 -0.83 Q 583.56 -0.58 583.38 -0.41 Q 583.2 -0.23 582.96 -0.12 Q 582.72 -0.02 582.45 -0.02 L 582.45 -0.02 Q 582.17 -0.02 581.93 -0.12 Q 581.69 -0.23 581.51 -0.41 Q 581.33 -0.58 581.23 -0.83 Q 581.13 -1.07 581.13 -1.34 Z" stroke-linecap="round" />
</g>
</g>
</g>
<g transform="matrix(1.9211538461538462 0 0 1.9211538461538462 640 405.48220831896856)" id="logo-logo"  >
<g style=""  paint-order="stroke"   >
		<g transform="matrix(0.431542474225652 0 0 -0.431542474225652 32.36603080090322 -45.424959190569524)"  >
<path style="stroke: none; stroke-width: 1; stroke-dasharray: none; stroke-linecap: butt; stroke-dashoffset: 0; stroke-linejoin: miter; stroke-miterlimit: 4; fill: rgb(217,217,216); fill-rule: nonzero; opacity: 1;"  paint-order="stroke"  transform=" translate(63.6965, -79.35100000000001)" d="M 0 0 L -102.563 90.687 L 0 -22.672 L -127.393 50.741 L -127.393 181.37400000000002 z" stroke-linecap="round" />
</g>
		<g transform="matrix(0.431542474225652 0 0 -0.431542474225652 32.36603080090322 44.633531581834774)"  >
<path style="stroke: none; stroke-width: 1; stroke-dasharray: none; stroke-linecap: butt; stroke-dashoffset: 0; stroke-linejoin: miter; stroke-miterlimit: 4; fill: rgb(217,217,216); fill-rule: nonzero; opacity: 1;"  paint-order="stroke"  transform=" translate(63.6965, 79.352)" d="M 0 0 L -102.563 -90.688 L 0 22.671 L -127.393 -50.741 L -127.393 -181.375 z" stroke-linecap="round" />
</g>
		<g transform="matrix(0.431542474225652 0 0 -0.431542474225652 -32.36581502966612 45.42517496180656)"  >
<path style="stroke: none; stroke-width: 1; stroke-dasharray: none; stroke-linecap: butt; stroke-dashoffset: 0; stroke-linejoin: miter; stroke-miterlimit: 4; fill: rgb(217,217,216); fill-rule: nonzero; opacity: 1;"  paint-order="stroke"  transform=" translate(-63.697, 79.35100000000001)" d="M 0 0 L 102.563 -90.687 L 0 22.672 L 127.394 -50.741 L 127.394 -181.37400000000002 z" stroke-linecap="round" />
</g>
		<g transform="matrix(0.431542474225652 0 0 -0.431542474225652 -32.36559925842903 -45.42517496180656)"  >
<path style="stroke: none; stroke-width: 1; stroke-dasharray: none; stroke-linecap: butt; stroke-dashoffset: 0; stroke-linejoin: miter; stroke-miterlimit: 4; fill: rgb(217,217,216); fill-rule: nonzero; opacity: 1;"  paint-order="stroke"  transform=" translate(-63.6965, -79.352)" d="M 0 0 L 102.563 90.688 L 0 -22.671 L 127.393 50.741 L 127.393 181.375 z" stroke-linecap="round" />
</g>
</g>
</g>
<g transform="matrix(1.9211538461538462 0 0 1.9211538461538462 640 404.2252383551467)" id="tagline-b207dfc8-6302-4519-8ee5-17366af30d9a-logo"  >
<g style=""  paint-order="stroke"   >
		<g transform="matrix(1 0 0 1 0 0)" id="tagline-b207dfc8-6302-4519-8ee5-17366af30d9a-logo-path-0"  >
<path style="stroke: none; stroke-width: 0; stroke-dasharray: none; stroke-linecap: butt; stroke-dashoffset: 0; stroke-linejoin: miter; stroke-miterlimit: 4; fill: rgb(55,182,255); fill-rule: nonzero; opacity: 1;"  paint-order="stroke"  transform=" translate(-39.6, 13.98)" d="M 1.6 -11.2 L 16.28 -11.2 C 21.08 -11.2 24.8 -14.72 24.8 -19.48 C 24.8 -24.32 21.12 -28 16.28 -28 L 1.6 -28 Z M 1.6 0 L 7.2 0 L 7.2 -9.2 L 1.6 -9.2 Z M 7.2 -16.8 L 7.2 -22.4 L 16.28 -22.4 C 18.4 -22.4 19.2 -21.6 19.2 -19.48 C 19.2 -17.52 18.44 -16.8 16.28 -16.8 Z M 51.2 -5.56 L 36.52 -5.56 C 34.4 -5.56 33.6 -6.36 33.6 -8.48 L 33.6 -9.2 L 28 -9.2 L 28 -8.48 C 28 -3.64 31.68 0.04 36.52 0.04 L 51.2 0.04 Z M 28 -11.2 L 48.4 -11.2 L 48.4 -16.8 L 33.6 -16.8 L 33.6 -22.4 L 51.2 -22.4 L 51.2 -28 L 28 -28 Z M 54.4 -11.2 L 69.08 -11.2 C 73.88 -11.2 77.6 -14.72 77.6 -19.48 C 77.6 -24.32 73.92 -28 69.08 -28 L 54.4 -28 Z M 54.4 0 L 60 0 L 60 -9.2 L 54.4 -9.2 Z M 60 -16.8 L 60 -22.4 L 69.08 -22.4 C 71.2 -22.4 72 -21.6 72 -19.48 C 72 -17.52 71.24 -16.8 69.08 -16.8 Z" stroke-linecap="round" />
</g>
</g>
</g>
<g transform="matrix(1.5295826249684152 0 0 1.5295826249684152 244.69412379503092 280.62127037485516)" id="shape-30815c05-98a1-428a-a17d-c2dc40fc7bd0"  >
<g style=""  paint-order="stroke"   >
		<g transform="matrix(1 0 0 1 0 0)" id="path-0_3_"  >
<path style="stroke: none; stroke-width: 1; stroke-dasharray: none; stroke-linecap: butt; stroke-dashoffset: 0; stroke-linejoin: miter; stroke-miterlimit: 4; fill: rgb(124,204,251); fill-rule: nonzero; opacity: 1;"  paint-order="stroke"  transform=" translate(-108.80010966850472, -128.475)" d="M 34.64 19.38 L 34.64 16.74 C 34.64 10.819999999999999 39.44 6.019999999999998 45.36 6.019999999999998 L 100.58 6.019999999999998 L 100.58 5.36 C 100.58 2.4000000000000004 102.98 0 105.94 0 L 116.56 0 C 119.52 0 121.92 2.4 121.92 5.36 L 121.92 6.0200000000000005 L 177.14 6.0200000000000005 C 183.05999999999997 6.0200000000000005 187.85999999999999 10.82 187.85999999999999 16.740000000000002 L 187.85999999999999 19.380000000000003 C 187.85999999999999 25.300000000000004 183.05999999999997 30.1 177.14 30.1 L 146.07999999999998 30.1 L 146.07999999999998 29.990000000000002 L 67.07999999999998 29.990000000000002 L 67.07999999999998 30.1 L 45.36 30.1 C 39.44 30.09 34.64 25.3 34.64 19.38 z M 97.57 49.04 L 124.92999999999999 49.04 L 124.92999999999999 36.29 L 97.57 36.29 L 97.57 49.04 z M 55.69 76.06 L 55.69 76.06 C 52.86 68.4 45.519999999999996 62.93 36.879999999999995 62.93 L 0 62.93 L 0 137.35 L 36.88 137.35 C 45.52 137.35 52.86 131.88 55.68000000000001 124.22 L 55.68000000000001 124.22 L 55.68000000000001 76.06 z M 169.45 158.13 L 169.44 163.49 L 217.59 163.49 L 217.6 158.25 C 217.65 136.31 209.15 115.68 193.65 100.15 C 179.65 86.11000000000001 161.45 77.80000000000001 141.89000000000001 76.33000000000001 L 141.89000000000001 55.24 L 80.61 55.24 L 80.61 76.06 L 67.07 76.06 L 67.07 124.21000000000001 L 135.61 124.21000000000001 C 144.67000000000002 124.21000000000001 153.17000000000002 127.74000000000001 159.57000000000002 134.15 C 165.96 140.56 169.47 149.08 169.45 158.13 z M 169.42 171.49 L 169.39 182.61 L 217.54 182.72000000000003 L 217.57 171.48000000000002 L 169.42 171.48000000000002 z M 193.48 256.95 C 206.37 256.95 216.82 246.5 216.82 233.60999999999999 C 216.82 220.71999999999997 193.48 190.73 193.48 190.73 C 193.48 190.73 170.14 220.72 170.14 233.60999999999999 C 170.14 246.5 180.59 256.95 193.48 256.95 z" stroke-linecap="round" />
</g>
</g>
</g>
</svg>